v 35.10000229 -13.41102791 -0.458783567
vn 0.07619398087 -0.3044000566 -0.9494920373
v 31.08600616 -0.8750042915 -0.4587848783
vn -0.05593002215 0.07694030553 -0.9954657555
v 35.95100021 -13.24100304 -0.458783567
vn 0.1361981332 -0.4609507024 -0.8769119382
v 36.90300751 -12.91900253 -0.4587842226
vn 0.1868899167 -0.4303383231 -0.8831087351
v 37.82700348 -12.47200203 -0.4587842226
vn 0.2362355143 -0.4036498368 -0.8838889003
v 38.71400452 -11.90600204 -0.4587842226
vn 0.2807877958 -0.3744323254 -0.8837186694
v 39.55599976 -11.22500229 -0.4587842226
vn 0.2227264792 -0.2469690293 -0.9430796504
v 40.34399796 -10.43600368 -0.4587842226
vn 0.342151016 -0.3192765713 -0.8837392926
v 35.10000229 -13.41102791 4.251976013
vn 0.06347517669 -0.1579564363 0.9854038358
v 35.10000229 -13.49700356 4.251976013
vn 0.04072015733 -0.9991289973 0.009117581882
v 35.10000229 -13.49700356 -0.458783567
vn 0.1608724892 -0.986810863 -0.01801012084
v -42 13.49999619 -0.4587861896
vn 0.9591978788 0.2353859693 -0.1566296518
v -44 13.49999619 -0.4587861896
vn -0.9851245284 0.06043707579 -0.1608632654
v -44 13.49999905 11.78918934
vn -0.9591978788 0.2353859991 0.156629622
v -42 13.49999905 11.78918934
vn 0.9851245284 0.06043710187 0.1608632505
v -44 -2.800002575 11.78919125
vn -0.9851245284 -0.06043707579 0.1608632654
v -44 -2.800003767 -0.4587848783
vn -0.9591978788 -0.2353859991 -0.156629622
v 35.10000229 13.41102219 -0.4587861896
vn 0.002367401263 0.00939172972 -0.9999530911
v 35.10000229 13.49999619 -0.4587861896
vn 0.00127100118 0.9999452233 -0.01038768794
v 35.10000229 13.41102219 4.251974106
vn 0.002327732276 0.005692728795 0.9999811053
v 35.10000229 13.49999619 4.251974106
vn 0.001412047539 0.9998207092 0.01888413914
v 42.81900406 -6.364002228 4.251975536
vn 0.4565367401 -0.1737217456 0.8725794554
v 43.23900223 -5.166003227 4.251975536
vn 0.3941271901 -0.1152917519 0.911795795
v 31.55100441 -0.4100034237 4.25197506
vn -0.1227753088 0.08924870938 0.9884133339
v -35.94999695 8.938996315 7.83215189
vn 0.2549343407 0.4928089976 0.8319541812
v -41.8999939 8.938996315 4.251974583
vn -0.7422657013 0.5180727839 0.4250202775
v -36.53599548 8.938996315 8.113856316
vn 0.4488737881 0.6731465459 0.587695539
v -41.8999939 13.49999619 4.251974106
vn -0.2407920063 0.7391114831 0.629073441
v -41.8999939 13.49999619 -0.4587861896
vn -0.0587506704 0.1480192691 -0.9872378707
v 42.31500244 -7.500001907 4.251976013
vn 0.5314765573 -0.2630806863 0.8051839471
v -37.00099945 8.938996315 8.551956177
vn 0.4545106292 0.8188053966 0.3506819308
v -37.29999542 8.938996315 9.104058266
vn 0.7927636504 0.5449782014 0.2729918659
v -27.89999771 13.49999619 4.251974106
vn 0 0.6851751208 0.7283784151
v -41.8999939 4.377998829 20.2685585
vn -0.5341006517 -0.7447200418 0.4001607001
v -41.8999939 8.938999176 20.2685585
vn -0.3272430003 0.9125786424 0.2451779842
v -41.8999939 4.377996445 4.251974583
vn -0.7720401883 -0.333041966 0.541328907
v 34.04523087 -13.49700356 -0.458783567
vn 0.001604738063 -0.588727653 -0.8083298802
v 34.00000381 -13.50000286 -0.458783567
vn -0.06614477187 -0.9978098273 -0.0006350207841
v 34.00000381 -13.49700356 -0.458783567
vn -1.343661552e-05 -0.3401332498 -0.9403772354
v 42.81900406 -6.364003658 -0.4587842226
vn 0.4492788315 -0.1848905832 -0.8740503192
v 31.55100441 -0.4100034237 -0.4587848783
vn -0.06192500144 0.0450148508 -0.9970651865
v 43.23900223 -5.166003227 -0.4587842226
vn 0.3892445564 -0.1250113845 -0.9126120806
v 43.56900406 -3.919003487 -0.4587848783
vn 0.4828994572 -0.1148786917 -0.8681077361
v 31.85000229 0.175996542 -0.4587848783
vn -0.1777093858 0.05765483156 -0.9823926091
v 43.80800247 -2.634003401 -0.4587848783
vn 0.4931350946 -0.07903380692 -0.8663552403
v 41.07100677 -9.546003342 -0.4587842226
vn 0.3060180247 -0.2341118008 -0.922791779
v 43.95199966 -1.323004127 -0.4587848783
vn 0.4203836322 -0.03580485657 -0.9066397548
v 42.81900406 6.363997459 -0.4587855339
vn 0.4755614698 0.1809610128 -0.8608683944
v 43.23900223 5.165997028 -0.4587855339
vn 0.4888807535 0.143009454 -0.8605486155
v 31.85000229 1.47499609 -0.4587848783
vn -0.1144562438 -0.03055817261 -0.9929581881
v 43.56900406 3.918995857 -0.4587848783
vn 0.4981811047 0.1054570153 -0.8606360555
v 43.80800247 2.633995771 -0.4587848783
vn 0.423196584 0.057083413 -0.9042378664
v 31.95199966 0.8259959221 -0.4587848783
vn -0.09580149502 -7.515064482e-08 -0.9954004884
v 43.95199966 1.322996497 -0.4587848783
vn 0.5066070557 0.03072688542 -0.8616293669
v 44.00000381 -3.814697266e-06 -0.4587848783
vn 0.505897522 -0.006118293852 -0.8625718951
v -41.8999939 -13.49700356 4.251976013
vn -0.05103999376 -0.2167235762 0.9748978615
v -29.89999962 4.377996445 4.251974583
vn 0.002002169378 -0.4037954211 0.9148471355
v -41.8999939 -13.49700356 -0.458783567
vn -0.06905951351 -0.2336253524 -0.9698711038
v 27.74700165 0.8259959221 -0.4587848783
vn 0.006201287266 -7.549645176e-08 -0.9999807477
v 40.34399796 10.43599701 -0.4587855339
vn 0.3804980516 0.3320656419 -0.863106966
v 41.07100677 9.545995712 -0.4587855339
vn 0.4112885296 0.2947040498 -0.862549305
v 31.55100441 2.060996056 -0.4587848783
vn -0.1350623965 -0.09818059951 -0.9859607816
v 41.73000336 8.563995361 -0.4587855339
vn 0.4367915094 0.256878376 -0.8621059656
v 42.31500244 7.499997139 -0.4587855339
vn 0.3801374733 0.1815223396 -0.9069427252
v 38.71400452 11.90599632 -0.4587855339
vn 0.3042335212 0.4056971073 -0.8618885279
v 39.55599976 11.22499752 -0.4587855339
vn 0.280326128 0.3000569344 -0.9118021131
v 31.08600616 2.525996923 -0.4587848783
vn -0.04769607261 -0.06561338902 -0.9967045784
v -37.00099945 8.938999176 10.8809557
vn 0.3393757641 0.9034707546 -0.2618486583
v -36.53599548 8.938999176 11.31905651
vn 0.3723021746 0.7522515655 -0.5436070561
v -33.59899521 4.377996445 8.551956177
vn -0.502391398 -0.7728840709 0.3876249194
v -33.29999542 4.377996445 9.104059219
vn -0.836625278 -0.4654527307 0.288811177
v -35.94999695 8.938999176 11.60075951
vn 0.1210177168 0.9102774858 -0.3959161937
v -34.06399536 4.377996445 8.113856316
vn -0.4829847217 -0.5190321803 0.7052172422
v 37.82700348 -12.47200203 4.251976013
vn 0.2188256085 -0.4099230766 0.8854820132
v 38.71400452 -11.90600204 4.251976013
vn 0.2645924091 -0.3817833662 0.8855689168
v 31.08600616 -0.8750029802 4.25197506
vn -0.02806038037 0.03860146552 0.9988605976
v 39.55599976 -11.22500229 4.251976013
vn 0.3859952688 -0.4280085266 0.8172003031
v 40.34399796 -10.43600368 4.251976013
vn 0.3553634584 -0.3101305962 0.8817799091
v 41.07100677 -9.546003342 4.251976013
vn 0.3157583177 -0.2262529135 0.9214696288
v 34.00000381 -13.49700356 4.251976013
vn -1.287775649e-05 -0.3259862363 0.9453744888
v 34.04523087 -13.49700356 4.251976013
vn 0.0009327048901 -0.3421797752 0.9396340251
v -34.64999771 4.377996445 7.832152367
vn -0.201488927 -0.7259774208 0.6575401425
v 30.5 -1.174003482 4.25197506
vn -0.1833342761 0.5636853576 0.8053864837
v 27.8500061 0.1759978533 4.25197506
vn 0.1309713572 0.035069298 0.9907656908
v 27.74700165 0.8259972334 4.25197506
vn 0.01065949444 7.549360959e-08 0.9999431968
v -35.29999542 8.938999176 11.69685841
vn 0 0.9947395921 -0.1024362221
v -29.89999962 8.938999176 20.2685585
vn 0.3373523653 0.7516690493 0.5667335987
v -34.64999771 8.938999176 11.60075951
vn -0.1246183887 0.9045740962 -0.4076959491
v -35.29999542 4.377996445 7.73511076
vn 1.709553528e-17 -0.9702095389 0.2422673404
v 29.8500042 -1.277002335 4.25197506
vn -1.228742224e-17 0.3596947193 0.9330700636
v 29.20000267 -1.174003482 4.25197506
vn 0.2094833702 0.6440840364 0.7357122302
v 28.61400223 -0.8750029802 4.25197506
vn 0.005036785267 0.006928951945 0.9999632835
v -27.89999771 4.399997234 4.251974583
vn 0.05957846344 -0.013239583 0.9981358051
v -27.89999771 13.39999676 4.251974106
vn 0.1446686089 0.0642972365 0.9873889089
v -33.59899521 8.938999176 10.8809557
vn -0.5767623782 0.6850651503 -0.445006609
v -34.06399536 8.938999176 11.31905651
vn -0.1617720872 0.958141923 -0.2362072468
v -29.89999962 8.938999176 13.10820293
vn -0.09200111777 0.8764131069 0.4726899862
v -33.29999542 8.938999176 10.32885456
vn -0.8614406586 0.4116873741 -0.2973777056
v -35.94999695 4.377996445 7.832152367
vn 0.1939024925 -0.7496586442 0.6327825189
v -36.53599548 4.377996445 8.113856316
vn 0.3869740069 -0.670943439 0.6325235367
v 29.20000267 -1.174003482 -0.4587848783
vn 0.129325062 0.3976267576 -0.9083876014
v 29.8500042 -1.277003646 -0.4587848783
vn -1.564355041e-17 0.6105864644 -0.7919496298
v 43.56900406 -3.919003487 4.251975536
vn 0.4872252643 -0.1031378508 0.867164433
v 43.80800247 -2.634003401 4.251975536
vn 0.4960651398 -0.06691241264 0.8657032251
v 31.85000229 0.1759978533 4.25197506
vn -0.09004107863 0.02921243012 0.9955095649
v 43.95199966 -1.323002815 4.25197506
vn 0.4215677381 -0.02556904405 0.9064363241
v 31.95199966 0.8259972334 4.25197506
vn -0.189018473 7.413694192e-08 0.9819735289
v 44.00000381 -2.503395081e-06 4.25197506
vn 0.505897522 0.006118293852 0.8625718951
v 43.95199966 1.322996497 4.25197506
vn 0.5052344799 0.04303174093 0.861908555
v 43.80800247 2.633995771 4.251974583
vn 0.4206106663 0.06741045415 0.9047334194
v 31.85000229 1.474997401 4.25197506
vn -0.110628143 -0.04252586141 0.9929516315
v 43.56900406 3.918995857 4.251974583
vn 0.4937824607 0.1174676716 0.8616148829
v 43.23900223 5.165997028 4.251974583
vn 0.4830573499 0.1551406384 0.8617348671
v 42.81900406 6.363997459 4.251974583
vn 0.4680683315 0.1926229149 0.8624433279
v 42.31500244 7.499997139 4.251974583
vn 0.3724425733 0.1910137683 0.9081851244
v 41.73000336 8.563995361 4.251974583
vn 0.4262307882 0.2678724229 0.8640437722
v 31.55100441 2.060997486 4.25197506
vn -0.06824853271 -0.04961163551 0.9964340329
v -37.29999542 4.377996445 9.104059219
vn 0.5764976144 -0.7926161885 0.1985197365
v -37.00099945 4.377996445 8.551956177
vn 0.6446029544 -0.5806292892 0.4973496497
v 41.73000336 -8.564002991 4.251976013
vn 0.2924209535 -0.1777963787 0.9396160841
v 35.95100021 -13.24100304 4.251976013
vn 0.1119849756 -0.4489206076 0.8865267634
v 36.90300751 -12.91900253 4.251976013
vn 0.1679380238 -0.4353144169 0.8844762444
v 30.5 2.824997425 4.251974583
vn -0.1356394887 -0.5065668225 0.8514646292
v 29.8500042 2.927997589 4.251974583
vn 0.02951026335 -0.558691144 0.8288506269
v 31.08600616 2.525996923 4.251974583
vn -0.09446434677 -0.1299502105 0.9870103598
v 41.07100677 9.545995712 4.251974583
vn 0.3990008533 0.3052459359 0.8646520972
v 39.55599976 11.22499752 4.251974106
vn 0.2673613429 0.3072605431 0.9132956266
v 36.90300751 12.9189949 4.251974106
vn 0.1842013448 0.4774714708 0.8591221571
v 37.82700348 12.47199631 4.251974106
vn 0.2386761755 0.4471093118 0.8620480895
v 38.71400452 11.90599632 4.251974106
vn 0.2867903709 0.4138132036 0.864008069
v 40.34399796 10.43599701 4.251974583
vn 0.3664704561 0.3419699371 0.8653068542
v 35.95100021 13.24099541 4.251974106
vn 0.1235228479 0.4951736331 0.8599681258
v -29.89999962 8.938996315 4.251974583
vn -0.6126365066 0.6726115942 0.4150544405
v -33.29999542 8.938996315 9.104058266
vn -0.6513239741 0.7247223854 0.2248432785
v -33.1969986 8.938996315 9.716456413
vn -0.2382860929 0.9711031318 0.01335872058
v -37.00099945 4.377998829 10.8809557
vn 0.5449715853 -0.725399375 -0.4204779565
v -37.29999542 4.377998829 10.32885456
vn 0.4872169793 -0.8570128679 -0.1677753776
v 41.73000336 -8.564003944 -0.4587842226
vn 0.5030975938 -0.3058911562 -0.8082842231
v 27.8500061 1.474997401 4.25197506
vn 0.1451016963 -0.04723140597 0.9882887602
v 28.14900398 -0.4100034237 4.25197506
vn 0.1750306636 0.1272344738 0.9763071537
v 28.61400223 2.525996923 4.251974583
vn 0.1283914596 -0.1766222119 0.9758689404
v 29.20000267 2.824997425 4.251974583
vn 0.002716680756 -0.008352705278 0.9999614358
v -35.29999542 8.938996315 7.735110283
vn 1.639191064e-17 0.9922958016 0.1238910854
v -34.64999771 8.938996315 7.83215189
vn -0.2591044605 0.4667850137 0.8455628753
v 28.61400223 -0.8750042915 -0.4587848783
vn 0.007179882843 0.009876962751 -0.9999254346
v 28.14900398 -0.4100034237 -0.4587848783
vn 0.05905046314 0.04292526469 -0.9973316789
v 27.8500061 0.175996542 -0.4587848783
vn 0.09312400967 0.0358286351 -0.9950096607
v 34.00000381 -13.50000286 4.251976013
vn 0.03312678635 -0.9994511008 0.0003181458451
v -37.40200043 8.938996315 9.716456413
vn 0.07037217915 0.9975208044 -7.53107301e-08
v -37.29999542 8.938999176 10.32885456
vn 0.7269897461 0.6393861175 -0.2503423989
v -42 -2.800003767 -0.4587848783
vn 0.9851245284 -0.06043710187 -0.1608632505
v -42 -2.800002575 11.78919125
vn 0.9591978788 -0.2353859693 0.1566296518
v -35.29999542 4.377998829 11.69685841
vn 0 -0.9986770749 -0.05142073706
v -35.94999695 4.377998829 11.60076046
vn 0.1966933012 -0.739749074 -0.6434928179
v 42.31500244 -7.500003338 -0.4587842226
vn 0.3097020686 -0.1533025205 -0.9383938313
v 30.5 -1.174003482 -0.4587848783
vn -0.1068148389 0.3284161389 -0.9384739995
v -29.89999962 4.399997234 4.251974583
vn 0.01099921856 -0.9999364018 0.002484026132
v -29.89999962 4.399997234 13.10820293
vn 0.8737843037 -0.4710914791 0.1207220927
v -29.89999962 4.377998829 20.2685585
vn 0.1710344404 -0.9435739517 0.2835761309
v -29.89999962 13.39999676 4.251974106
vn -0.3345622122 0.1499943435 0.9303600788
v -29.89999962 13.39999962 13.10820198
vn -0.9076856375 0.4069426656 0.1024911776
v 27.8500061 1.47499609 -0.4587848783
vn 0.06380496919 -0.02076897956 -0.9977462292
v -37.40200043 4.377996445 9.716456413
vn 0.1397103667 -0.9901924133 7.475745178e-08
v 28.14900398 2.060996056 -0.4587848783
vn 0.1189206988 -0.08644673973 -0.989133358
v 28.14900398 2.060997486 4.25197506
vn 0.072891213 -0.05298651755 0.9959313869
v 37.82700348 12.47199631 -0.4587855339
vn 0.2575777173 0.4401167035 -0.860204041
v 35.95100021 13.24099541 -0.4587861896
vn 0.149880752 0.5072587729 -0.8486602902
v 36.90300751 12.9189949 -0.4587855339
vn 0.2049242854 0.4718652368 -0.8575250506
v 30.5 2.824997425 -0.4587848783
vn -0.188290298 -0.4893934727 -0.8514932394
v 29.8500042 2.927997589 -0.4587848783
vn -0.02951026335 -0.5586912632 -0.8288505077
v 29.20000267 2.824997425 -0.4587848783
vn 0.004458316602 -0.01370773558 -0.9998961091
v 28.61400223 2.525996923 -0.4587848783
vn 0.05478615686 -0.07536689937 -0.9956496954
v -33.59899521 8.938996315 8.551956177
vn -0.6762036681 0.5201393962 0.5217313766
v -34.06399536 8.938996315 8.113856316
vn -0.3591799438 0.7719748616 0.5244469643
v -27.89999771 4.399997234 13.10820293
vn 0.9265637994 -0.2059030384 0.3147752583
v -34.64999771 4.377998829 11.60076046
vn -0.2005000859 -0.7276903987 -0.65594697
v -34.06399536 4.377998829 11.31905651
vn -0.2396965325 -0.9055689573 -0.3499864042
v -36.53599548 4.377998829 11.31905651
vn 0.2266746312 -0.9160106778 -0.3309728503
v -33.59899521 4.377998829 10.8809557
vn -0.574090004 -0.688636899 -0.4429445863
v -33.1969986 4.377996445 9.716456413
vn -0.1417997926 -0.9898634553 -0.00794950407
v -33.29999542 4.377998829 10.32885456
vn -0.5453457832 -0.8167966008 -0.1882585734
v -27.89999771 13.39999962 13.10820198
vn 0.9801721573 0.1089080274 0.1655344069
# mm_gid 0
g mmGroup0
f 1//1 2//2 3//3 
f 4//4 3//3 2//2 
f 5//5 4//4 2//2 
f 6//6 5//5 2//2 
f 7//7 6//6 2//2 
f 8//8 7//7 2//2 
f 9//9 10//10 11//11 
f 9//9 11//11 1//1 
f 12//12 13//13 14//14 
f 12//12 14//14 15//15 
f 16//16 14//14 13//13 
f 16//16 13//13 17//17 
f 18//18 19//19 20//20 
f 21//21 20//20 19//19 
f 22//22 23//23 24//24 
f 25//25 26//26 27//27 
f 26//26 28//28 29//29 
f 30//30 22//22 24//24 
f 31//31 26//26 32//32 
f 21//21 19//19 33//33 
f 34//34 35//35 26//26 
f 26//26 29//29 36//36 
f 34//34 26//26 36//36 
f 37//37 38//38 39//39 
f 40//40 41//41 42//42 
f 43//43 42//42 44//44 
f 45//45 43//43 44//44 
f 46//46 8//8 2//2 
f 2//2 41//41 46//46 
f 47//47 45//45 44//44 
f 48//48 49//49 50//50 
f 49//49 51//51 50//50 
f 51//51 52//52 50//50 
f 53//53 50//50 52//52 
f 54//54 55//55 53//53 
f 55//55 47//47 53//53 
f 44//44 53//53 47//47 
f 36//36 56//56 57//57 
f 58//58 29//29 59//59 
f 60//60 61//61 62//62 
f 63//63 64//64 62//62 
f 50//50 62//62 64//64 
f 64//64 48//48 50//50 
f 65//65 66//66 67//67 
f 66//66 60//60 62//62 
f 62//62 67//67 66//66 
f 68//68 35//35 69//69 
f 70//70 57//57 71//71 
f 72//72 69//69 35//35 
f 73//73 57//57 70//70 
f 74//74 75//75 76//76 
f 75//75 77//77 76//76 
f 77//77 78//78 76//76 
f 78//78 79//79 76//76 
f 24//24 76//76 79//79 
f 80//80 81//81 76//76 
f 81//81 9//9 76//76 
f 82//82 57//57 73//73 
f 83//83 80//80 76//76 
f 84//84 59//59 85//85 
f 86//86 87//87 88//88 
f 36//36 57//57 89//89 
f 90//90 80//80 83//83 
f 91//91 80//80 90//90 
f 92//92 80//80 91//91 
f 84//84 85//85 93//93 
f 94//94 93//93 85//85 
f 95//95 96//96 97//97 
f 95//95 97//97 98//98 
f 99//99 100//100 36//36 
f 39//39 101//101 102//102 
f 103//103 104//104 105//105 
f 104//104 106//106 105//105 
f 107//107 105//105 106//106 
f 106//106 108//108 107//107 
f 108//108 109//109 107//107 
f 109//109 110//110 107//107 
f 111//111 107//107 110//110 
f 112//112 111//111 110//110 
f 113//113 111//111 112//112 
f 114//114 111//111 113//113 
f 115//115 111//111 114//114 
f 116//116 117//117 115//115 
f 23//23 103//103 105//105 
f 105//105 24//24 23//23 
f 118//118 36//36 119//119 
f 119//119 36//36 100//100 
f 111//111 115//115 117//117 
f 120//120 30//30 24//24 
f 9//9 121//121 76//76 
f 121//121 122//122 76//76 
f 10//10 9//9 81//81 
f 79//79 120//120 24//24 
f 122//122 74//74 76//76 
f 87//87 97//97 96//96 
f 96//96 88//88 87//87 
f 72//72 35//35 86//86 
f 87//87 86//86 35//35 
f 123//123 20//20 124//124 
f 125//125 20//20 123//123 
f 126//126 117//117 116//116 
f 117//117 127//127 125//125 
f 21//21 33//33 20//20 
f 128//128 125//125 129//129 
f 130//130 129//129 125//125 
f 127//127 130//130 125//125 
f 127//127 117//117 131//131 
f 131//131 117//117 126//126 
f 132//132 125//125 128//128 
f 20//20 125//125 132//132 
f 133//133 134//134 135//135 
f 98//98 97//97 135//135 
f 133//133 135//135 97//97 
f 136//136 34//34 137//137 
f 120//120 138//138 30//30 
f 85//85 139//139 94//94 
f 33//33 94//94 139//139 
f 140//140 84//84 93//93 
f 141//141 142//142 33//33 
f 92//92 140//140 93//93 
f 80//80 92//92 93//93 
f 79//79 46//46 138//138 
f 79//79 138//138 120//120 
f 25//25 143//143 26//26 
f 144//144 133//133 143//143 
f 26//26 143//143 133//133 
f 145//145 58//58 146//146 
f 147//147 146//146 58//58 
f 38//38 148//148 80//80 
f 38//38 80//80 39//39 
f 78//78 8//8 46//46 
f 78//78 46//46 79//79 
f 62//62 117//117 125//125 
f 37//37 81//81 148//148 
f 37//37 148//148 38//38 
f 149//149 35//35 150//150 
f 68//68 150//150 35//35 
f 32//32 26//26 149//149 
f 31//31 27//27 26//26 
f 35//35 149//149 26//26 
f 77//77 7//7 8//8 
f 77//77 8//8 78//78 
f 151//151 12//12 15//15 
f 151//151 15//15 152//152 
f 153//153 34//34 154//154 
f 89//89 143//143 25//25 
f 117//117 62//62 111//111 
f 50//50 111//111 62//62 
f 151//151 17//17 13//13 
f 151//151 13//13 12//12 
f 77//77 75//75 6//6 
f 77//77 6//6 7//7 
f 15//15 14//14 16//16 
f 15//15 16//16 152//152 
f 75//75 74//74 5//5 
f 75//75 5//5 6//6 
f 111//111 50//50 107//107 
f 40//40 155//155 41//41 
f 81//81 37//37 10//10 
f 11//11 10//10 37//37 
f 34//34 87//87 35//35 
f 74//74 122//122 4//4 
f 74//74 4//4 5//5 
f 1//1 37//37 2//2 
f 156//156 2//2 39//39 
f 44//44 105//105 107//107 
f 122//122 121//121 3//3 
f 122//122 3//3 4//4 
f 157//157 158//158 57//57 
f 159//159 57//57 158//158 
f 87//87 34//34 159//159 
f 102//102 156//156 39//39 
f 145//145 101//101 39//39 
f 121//121 9//9 1//1 
f 121//121 1//1 3//3 
f 159//159 158//158 87//87 
f 97//97 87//87 158//158 
f 102//102 101//101 91//91 
f 102//102 91//91 90//90 
f 34//34 153//153 159//159 
f 32//32 118//118 119//119 
f 160//160 133//133 161//161 
f 97//97 161//161 133//133 
f 91//91 101//101 145//145 
f 91//91 145//145 92//92 
f 85//85 59//59 139//139 
f 162//162 139//139 59//59 
f 71//71 135//135 134//134 
f 39//39 2//2 37//37 
f 44//44 42//42 41//41 
f 155//155 138//138 41//41 
f 52//52 54//54 53//53 
f 61//61 63//63 62//62 
f 138//138 46//46 41//41 
f 11//11 37//37 1//1 
f 115//115 64//64 63//63 
f 115//115 63//63 116//116 
f 163//163 32//32 149//149 
f 146//146 140//140 145//145 
f 92//92 145//145 140//140 
f 114//114 48//48 64//64 
f 114//114 64//64 115//115 
f 164//164 165//165 139//139 
f 164//164 139//139 162//162 
f 166//166 65//65 67//67 
f 167//167 168//168 67//67 
f 169//169 170//170 18//18 
f 170//170 171//171 18//18 
f 172//172 29//29 171//171 
f 67//67 169//169 18//18 
f 18//18 167//167 67//67 
f 168//168 166//166 67//67 
f 157//157 57//57 93//93 
f 57//57 56//56 93//93 
f 71//71 134//134 173//173 
f 113//113 49//49 48//48 
f 113//113 48//48 114//114 
f 140//140 146//146 147//147 
f 140//140 147//147 84//84 
f 150//150 137//137 163//163 
f 150//150 163//163 149//149 
f 36//36 118//118 163//163 
f 58//58 39//39 80//80 
f 174//174 73//73 173//173 
f 112//112 51//51 49//49 
f 112//112 49//49 113//113 
f 165//165 164//164 141//141 
f 172//172 141//141 164//164 
f 59//59 84//84 147//147 
f 157//157 93//93 158//158 
f 175//175 158//158 93//93 
f 137//137 150//150 136//136 
f 68//68 136//136 150//150 
f 176//176 159//159 153//153 
f 177//177 159//159 176//176 
f 178//178 154//154 34//34 
f 110//110 52//52 51//51 
f 110//110 51//51 112//112 
f 19//19 29//29 33//33 
f 73//73 174//174 144//144 
f 172//172 164//164 29//29 
f 59//59 147//147 58//58 
f 39//39 58//58 145//145 
f 162//162 59//59 29//29 
f 164//164 162//162 29//29 
f 18//18 171//171 29//29 
f 171//171 142//142 141//141 
f 171//171 141//141 172//172 
f 148//148 81//81 80//80 
f 109//109 54//54 52//52 
f 109//109 52//52 110//110 
f 69//69 178//178 136//136 
f 69//69 136//136 68//68 
f 179//179 159//159 177//177 
f 180//180 159//159 181//181 
f 71//71 57//57 180//180 
f 159//159 180//180 57//57 
f 179//179 181//181 159//159 
f 160//160 94//94 33//33 
f 143//143 89//89 144//144 
f 124//124 142//142 171//171 
f 124//124 171//171 170//170 
f 105//105 44//44 24//24 
f 41//41 24//24 44//44 
f 108//108 55//55 54//54 
f 108//108 54//54 109//109 
f 94//94 160//160 161//161 
f 94//94 161//161 182//182 
f 178//178 69//69 154//154 
f 72//72 154//154 69//69 
f 82//82 89//89 57//57 
f 99//99 36//36 89//89 
f 2//2 76//76 24//24 
f 2//2 24//24 41//41 
f 124//124 170//170 123//123 
f 169//169 123//123 170//170 
f 106//106 47//47 55//55 
f 106//106 55//55 108//108 
f 165//165 33//33 139//139 
f 161//161 97//97 182//182 
f 175//175 182//182 97//97 
f 175//175 97//97 158//158 
f 104//104 45//45 47//47 
f 104//104 47//47 106//106 
f 156//156 83//83 2//2 
f 76//76 2//2 83//83 
f 123//123 169//169 125//125 
f 67//67 125//125 169//169 
f 72//72 86//86 154//154 
f 153//153 154//154 86//86 
f 100//100 25//25 27//27 
f 36//36 163//163 34//34 
f 34//34 136//136 178//178 
f 137//137 34//34 163//163 
f 83//83 156//156 102//102 
f 83//83 102//102 90//90 
f 103//103 43//43 45//45 
f 103//103 45//45 104//104 
f 182//182 175//175 93//93 
f 182//182 93//93 94//94 
f 142//142 20//20 33//33 
f 165//165 141//141 33//33 
f 29//29 58//58 36//36 
f 56//56 36//36 58//58 
f 19//19 18//18 29//29 
f 62//62 125//125 67//67 
f 100//100 27//27 119//119 
f 31//31 119//119 27//27 
f 124//124 20//20 142//142 
f 23//23 42//42 43//43 
f 23//23 43//43 103//103 
f 80//80 93//93 56//56 
f 153//153 86//86 176//176 
f 88//88 176//176 86//86 
f 58//58 80//80 56//56 
f 133//133 160//160 26//26 
f 160//160 28//28 26//26 
f 33//33 28//28 160//160 
f 152//152 16//16 17//17 
f 152//152 17//17 151//151 
f 28//28 33//33 29//29 
f 119//119 31//31 32//32 
f 22//22 40//40 42//42 
f 22//22 42//42 23//23 
f 96//96 177//177 176//176 
f 96//96 176//176 88//88 
f 30//30 155//155 40//40 
f 30//30 40//40 22//22 
f 107//107 50//50 53//53 
f 138//138 155//155 30//30 
f 95//95 179//179 96//96 
f 177//177 96//96 179//179 
f 53//53 44//44 107//107 
f 133//133 173//173 134//134 
f 132//132 167//167 18//18 
f 132//132 18//18 20//20 
f 133//133 144//144 174//174 
f 174//174 173//173 133//133 
f 179//179 95//95 98//98 
f 179//179 98//98 181//181 
f 128//128 168//168 167//167 
f 128//128 167//167 132//132 
f 129//129 166//166 168//168 
f 129//129 168//168 128//128 
f 135//135 180//180 98//98 
f 181//181 98//98 180//180 
f 130//130 65//65 166//166 
f 130//130 166//166 129//129 
f 127//127 66//66 65//65 
f 127//127 65//65 130//130 
f 180//180 135//135 71//71 
f 131//131 60//60 66//66 
f 131//131 66//66 127//127 
f 126//126 61//61 60//60 
f 126//126 60//60 131//131 
f 118//118 32//32 163//163 
f 126//126 116//116 61//61 
f 63//63 61//61 116//116 
f 173//173 70//70 71//71 
f 70//70 173//173 73//73 
f 144//144 82//82 73//73 
f 82//82 144//144 89//89 
f 89//89 25//25 99//99 
f 99//99 25//25 100//100 
